<?xml version="1.0" encoding="utf-8"?>
<!-- Generator: Adobe Illustrator 25.2.0, SVG Export Plug-In . SVG Version: 6.00 Build 0)  -->
<svg version="1.1" id="Layer_1" xmlns="http://www.w3.org/2000/svg" xmlns:xlink="http://www.w3.org/1999/xlink" x="0px" y="0px"
	 viewBox="0 0 48.01 48" style="enable-background:new 0 0 48.01 48;" xml:space="preserve">
<style type="text/css">
	.st0{fill:#666666;}
	.st1{fill-rule:evenodd;clip-rule:evenodd;fill:#666666;}
</style>
<g id="Group_94" transform="translate(-200 -160)">
	<path id="Path_7665" class="st1" d="M225.46,206.49h-20.45c-1.3,0-2.36-1.06-2.36-2.36l0,0v-37.99c0-1.3,1.05-2.36,2.36-2.36
		c0,0,0,0,0,0H243c1.3,0,2.36,1.05,2.36,2.36c0,0,0,0,0,0v37.99c0,1.3-1.05,2.36-2.36,2.36c0,0,0,0,0,0h-10.88v-16.54h5.55
		l0.83-6.45h-6.38v-4.11c0-1.87,0.52-3.14,3.19-3.14h3.41v-5.76c-1.65-0.17-3.31-0.26-4.97-0.25c-4.92,0-8.29,3-8.29,8.52v4.75
		h-5.57v6.45h5.57L225.46,206.49L225.46,206.49z"/>
</g>
</svg>
