<?xml version="1.0" encoding="utf-8"?>
<!-- Generator: Adobe Illustrator 25.2.0, SVG Export Plug-In . SVG Version: 6.00 Build 0)  -->
<svg version="1.1" id="Layer_1" xmlns="http://www.w3.org/2000/svg" xmlns:xlink="http://www.w3.org/1999/xlink" x="0px" y="0px"
	 viewBox="0 0 48.01 48" style="enable-background:new 0 0 48.01 48;" xml:space="preserve">
<style type="text/css">
	.st0{fill:#666666;}
</style>
<path id="Path_7666" class="st0" d="M24.01,11.69c-6.8,0-12.31,5.51-12.31,12.31c0,6.8,5.51,12.31,12.31,12.31S36.32,30.8,36.32,24
	c0,0,0,0,0,0c0.01-6.79-5.48-12.3-12.27-12.31C24.04,11.69,24.02,11.69,24.01,11.69z M24.01,32c-4.42,0-8-3.58-8-8s3.58-8,8-8
	s8,3.58,8,8C32,28.42,28.43,31.99,24.01,32z M39.69,11.19c0,1.59-1.28,2.87-2.87,2.87c-1.59,0-2.87-1.28-2.87-2.87
	c0-1.59,1.28-2.87,2.87-2.87c0,0,0,0,0,0c1.58,0,2.87,1.28,2.87,2.86C39.69,11.18,39.69,11.19,39.69,11.19L39.69,11.19z M47.84,14.1
	c-0.18-3.85-1.06-7.25-3.88-10.06s-6.21-3.68-10.06-3.88c-3.96-0.22-15.84-0.22-19.8,0C10.27,0.35,6.87,1.23,4.05,4.04
	s-3.69,6.21-3.88,10.06c-0.23,3.96-0.23,15.84,0,19.8c0.18,3.85,1.06,7.25,3.88,10.06s6.21,3.68,10.06,3.88
	c3.96,0.23,15.84,0.23,19.8,0c3.85-0.18,7.25-1.06,10.06-3.88s3.68-6.21,3.88-10.06C48.07,29.93,48.07,18.07,47.84,14.1L47.84,14.1z
	 M42.72,38.15c-0.82,2.09-2.48,3.74-4.56,4.56C35,43.96,27.5,43.68,24.01,43.68s-11,0.28-14.15-0.96c-2.09-0.82-3.74-2.48-4.56-4.56
	C4.05,34.99,4.34,27.49,4.34,24S4.06,13,5.3,9.85c0.82-2.09,2.48-3.74,4.56-4.56c3.16-1.25,10.66-0.96,14.15-0.96
	s11-0.28,14.15,0.96c2.09,0.82,3.74,2.48,4.56,4.56c1.25,3.16,0.96,10.66,0.96,14.15S43.97,35,42.72,38.15L42.72,38.15z"/>
</svg>
