<?xml version="1.0" encoding="utf-8"?>
<!-- Generator: Adobe Illustrator 25.2.0, SVG Export Plug-In . SVG Version: 6.00 Build 0)  -->
<svg version="1.1" id="Layer_1" xmlns="http://www.w3.org/2000/svg" xmlns:xlink="http://www.w3.org/1999/xlink" x="0px" y="0px"
	 viewBox="0 0 48.01 48" style="enable-background:new 0 0 48.01 48;" xml:space="preserve">
<style type="text/css">
	.st0{fill:#666666;}
	.st1{fill-rule:evenodd;clip-rule:evenodd;fill:#666666;}
</style>
<path id="Path_7667" class="st0" d="M41.79,3.25H6.21C4.57,3.26,3.24,4.6,3.25,6.24v35.51c-0.01,1.64,1.31,2.98,2.95,2.99h35.58
	c1.64-0.01,2.97-1.35,2.96-2.99V6.24C44.76,4.6,43.44,3.26,41.79,3.25z M15.8,38.82H9.65v-19.8h6.16v19.81L15.8,38.82z M12.72,16.31
	c-1.97,0-3.57-1.6-3.57-3.57s1.6-3.57,3.57-3.57s3.57,1.6,3.57,3.57l0,0C16.29,14.71,14.69,16.31,12.72,16.31L12.72,16.31z
	 M38.85,38.82H32.7v-9.63c0-2.3-0.05-5.25-3.2-5.25c-3.21,0-3.7,2.5-3.7,5.09v9.8h-6.15V19.01h5.9v2.7h0.09
	c1.21-2.06,3.44-3.28,5.83-3.2c6.23,0,7.38,4.11,7.38,9.44L38.85,38.82z"/>
</svg>
