<?xml version="1.0" encoding="utf-8"?>
<!-- Generator: Adobe Illustrator 25.2.0, SVG Export Plug-In . SVG Version: 6.00 Build 0)  -->
<svg version="1.1" id="Layer_1" xmlns="http://www.w3.org/2000/svg" xmlns:xlink="http://www.w3.org/1999/xlink" x="0px" y="0px"
	 viewBox="0 0 48.01 48" style="enable-background:new 0 0 48.01 48;" xml:space="preserve">
<style type="text/css">
	.st0{fill:#666666;}
	.st1{fill-rule:evenodd;clip-rule:evenodd;fill:#666666;}
</style>
<g id="Group_97" transform="translate(1239 5358)">
	<g id="Group_96">
		<path id="Path_7668" class="st1" d="M-1192.21-5347.08c-1.56,0.71-3.22,1.18-4.93,1.38c1.8-1.11,3.14-2.84,3.77-4.86
			c-1.68,1.02-3.52,1.74-5.45,2.13c-1.6-1.77-3.88-2.78-6.26-2.78c-4.8,0.06-8.63,4-8.57,8.8c0,0.67,0.07,1.35,0.22,2
			c-6.94-0.38-13.39-3.73-17.68-9.19c-0.76,1.35-1.16,2.88-1.16,4.43c-0.01,2.92,1.41,5.66,3.81,7.32c-1.37-0.05-2.7-0.42-3.89-1.1
			v0.11c-0.04,4.14,2.84,7.74,6.88,8.62c-0.74,0.21-1.5,0.31-2.26,0.31c-0.54,0-1.08-0.05-1.61-0.16c1.08,3.55,4.31,6.01,8.01,6.1
			c-3.02,2.44-6.78,3.77-10.65,3.77c-0.68,0-1.37-0.04-2.05-0.12c3.9,2.57,8.47,3.95,13.15,3.95c15.78,0,24.41-13.4,24.41-25.03
			c0-0.38-0.01-0.77-0.02-1.14C-1194.8-5343.77-1193.35-5345.32-1192.21-5347.08"/>
	</g>
</g>
</svg>
